<?xml version="1.0" encoding="utf-8"?>
<!-- Generator: Adobe Illustrator 26.0.2, SVG Export Plug-In . SVG Version: 6.00 Build 0)  -->
<svg version="1.1" id="Layer_1" xmlns="http://www.w3.org/2000/svg" xmlns:xlink="http://www.w3.org/1999/xlink" x="0px" y="0px"
	 viewBox="0 0 2000 2000" style="enable-background:new 0 0 2000 2000;" xml:space="preserve">
<style type="text/css">
	.st0{fill:#FFEFE3;}
	.st1{fill:#F5A256;}
	.st2{fill:#F78001;}
</style>
<g id="BACKGROUND">
	<rect class="st0" width="2000" height="2000"/>
</g>
<g>
	<g>
		<g>
			<path class="st1" d="M1914,994.5c7.2,10.6-63.8-1.5-76.7-5.1C1866.6,984.3,1910.8,989.9,1914,994.5z"/>
			<path class="st1" d="M1916.5,971.5c5.6,2.4,3.4,10.2-8.1,7.7c-59.8-13.2-146.4-44.3-40.7-16.7
				C1877.6,965.1,1916.5,971.5,1916.5,971.5z"/>
			<path class="st1" d="M1908.4,957.7c12.1,5.3,17.9,1.5,18.6-3.6c1.6-11.5-32.9-19.7-52.3-24.2
				C1806.1,914.1,1788.9,906,1908.4,957.7z"/>
			<path class="st1" d="M1918.4,929.1c23.5,14.8,27.4,0.7,5.3-10.6c-75.9-39-55.4-24.9-63-30.8
				C1879.7,902.3,1898.5,916.6,1918.4,929.1z"/>
			<path class="st1" d="M1928.4,907.7c22.6,19.6,32.4,9,20.1-0.4c-35-26.7-69.4-52.1-107.5-74.3
				C1859.6,851.8,1844.2,834.4,1928.4,907.7z"/>
			<path class="st1" d="M1971.9,897.4c9.4,12-1.2,20.4-10.4,4.6C1925.7,840.3,1888.7,791.1,1971.9,897.4z"/>
			<path class="st1" d="M2000,850.7v59.4c-4.1-2-8.1-7.5-9.8-18.9c-6.3-42.6-11-85.4-14.2-128.3
				C1984.9,792.1,1992.8,821.2,2000,850.7z"/>
		</g>
	</g>
	<g>
		<g>
			<path class="st2" d="M993.2,1066.1c41.4,7.7,89.7-21,86.9-68.1c-2.9-49.3-66.3-87.6-109.9-61.8
				C924,963.5,927.8,1054,993.2,1066.1z"/>
			<path class="st1" d="M1088.7,962.7c-4.2-4.6-4.7-14.2,12.7-22.7c38.7-18.9,78.1-36.3,118.1-52.3c-38.1,26.2-76.3,50-116.3,73
				C1097.6,964,1093,967.4,1088.7,962.7z"/>
			<path class="st1" d="M1101.5,977c-9.9-8.2,61.8-16.1,75.1-16.3C1149.8,973.8,1105.8,980.6,1101.5,977z"/>
			<path class="st1" d="M1105.4,999.8c-6.1-0.7-6.1-8.9,5.7-9.6c61.1-3.9,153,2.2,43.7,4.8C1144.6,995.3,1105.5,999.8,1105.4,999.8z
				"/>
			<path class="st1" d="M1007.9,910.1c-5.6,2.7-14.9,0.2-17.8-19c-6.3-42.6-11.1-85.4-14.2-128.3c13.5,44.2,24.6,87.8,34.5,133
				C1011.8,902,1013.6,907.4,1007.9,910.1z"/>
			<path class="st1" d="M1026.6,905.5c-11.5,5.7,10.4-63,15.7-75.2C1043.3,860.1,1031.6,903,1026.6,905.5z"/>
			<path class="st1" d="M1049,911.3c-3.1,5.2-10.6,1.9-6.5-9.1c21.4-57.4,64.3-138.8,22.2-37.9
				C1060.8,873.6,1049.1,911.2,1049,911.3z"/>
			<path class="st1" d="M1063.8,905.1c-6.9,11.3-3.9,17.5,1,18.9c11.1,3.1,24.1-29.8,31.2-48.4
				C1121.3,809.9,1131.7,794,1063.8,905.1z"/>
			<path class="st1" d="M1090.7,919c-17.9,21.2-4.5,27,9.8,6.7c49.2-69.7,32.4-51.4,39.3-58.1C1122.7,884.4,1105.9,901.1,1090.7,919
				z"/>
			<path class="st1" d="M1046.7,1029.7c26.8-28.7,9.2-74.6-36.5-79.1c-26.9-2.6-54.6,12.7-63.1,43.6c-12.9,46.2,8.8,41.9,4.8,36.8
				c-4.5-5.7-4.6-63.5,42-72.8c30.4-6.1,64.6,16.2,57.5,48.4c-6.8,31.2-47.7,41.5-64.8,20.1c-11.3-14.1-7.8-40.9,20.5-42.4
				c18.5-1,27.6,10.9,21.7,22.6c-6.9,13.5-25.7,14.3-29.2,2.8c-3.2-10.4,9.7-13.3,13.6-6.6c1.5,2.5,4.8,0.5,4.3-2
				c-1.5-8.6-12.1-10.4-18.7-6.7c-13.1,7.2-6.1,33.6,16.6,30c18.6-3,28.5-24.2,17.8-37.3c-10.9-13.3-36.7-12.7-50-0.6
				c-10.9,9.9-12.7,29.8-3.1,43.1C993.7,1048.6,1026.5,1051.4,1046.7,1029.7z"/>
		</g>
	</g>
	<g>
		<g>
			<path class="st2" d="M2000,0.1v67.1c-2.3-0.2-4.6-0.5-6.8-0.9c-35.4-6.6-52.7-36.1-53.9-66.1L2000,0.1L2000,0.1z"/>
			<path class="st1" d="M2000,91.3V134c-6.8,53.4-17.9,100.1-7.4,10c1.2-10.1,2.1-49.5,2.1-49.6C1995.4,91.4,1997.9,90.2,2000,91.3z
				"/>
			<path class="st1" d="M1982.1,104.4c3.5-12.8-1-17.9-6.1-17.9c-11.6,0.1-14.9,35.3-16.6,55.1
				C1953.2,211.7,1947.5,229.9,1982.1,104.4z"/>
			<path class="st1" d="M1952.5,98.4c11.4-25.4-3.1-27.2-11.3-3.8c-28.1,80.6-17,58.3-21.7,66.7
				C1931.3,140.5,1942.8,119.9,1952.5,98.4z"/>
			<path class="st1" d="M1929.8,91.5c16.3-25.1,4.4-33.4-3.2-19.9c-21.6,38.4-41.9,76-58.6,116.8
				C1884,167.5,1868.9,185.1,1929.8,91.5z"/>
			<path class="st1" d="M1913.6,49.9c10.6-11,20.3-1.6,6,9.6C1863.4,103.6,1819.9,147.1,1913.6,49.9z"/>
			<path class="st1" d="M1920.3,15.7c2.8,5.5,0.6,14.9-18.5,18.3c-42.4,7.5-85.1,13.4-127.9,17.7c43.8-14.7,87.1-27,132-38.1
				C1912,12,1917.4,10,1920.3,15.7z"/>
			<path class="st1" d="M1952.5,0.1c-3.9,14.8-2.8,28.4-0.7,31c3.8,4.9-15.9,9.1-6.3-31H1952.5z"/>
			<path class="st1" d="M2000,36.2v7.1c-8.1-2.3-15.2-7-20-13.6c-6.2-8.6-7.6-19.9-4.9-29.6h7.2c-3.4,8.8-1.6,19.5,4.3,26.8
				C1990.2,31.4,1994.8,34.5,2000,36.2z"/>
			<path class="st1" d="M2000,3c-1,1.7-1.3,4-0.5,6.8c0.1,0.4,0.3,0.9,0.5,1.2v10.5c-7.3-5-9.7-14.7-6.5-21.5h6.5V3z"/>
		</g>
	</g>
	<g>
		<g>
			<path class="st1" d="M1571.7,589.8c47.1-50.4,49.9-142.5-17.8-180.1c-70.8-39.4-179.6,14.6-182.2,97.5
				C1369,595.1,1497.4,669.4,1571.7,589.8z"/>
			<path class="st2" d="M1512.8,366.8c-10,1.9-23.7-5.9-20.2-37.5c7.9-70.1,18.5-139.9,31.6-209.3c2.7,75.7,2,149.5-1.4,225.1
				C1522.4,355.5,1523,364.9,1512.8,366.8z"/>
			<path class="st2" d="M1543.8,361.6c-20,6.4,32.1-99.7,43.5-118.2C1581.8,292,1552.5,358.8,1543.8,361.6z"/>
			<path class="st2" d="M1578.8,376.4c-6.3,7.7-17.7,0.6-8.3-16.3c48.4-87.9,137.6-209.7,45.1-56.2
				C1607,318.1,1578.9,376.2,1578.8,376.4z"/>
			<path class="st2" d="M1604.3,369.9c-13.9,16.6-10.6,27.5-3,30.9c17.3,7.8,46.2-42.6,62.2-71
				C1720.3,229.4,1741,206.2,1604.3,369.9z"/>
			<path class="st2" d="M1649.9,399c-34.2,30.1-13.8,42.7,14.3,13.3c96.6-101.2,64.9-75.5,77.7-84.8
				C1710.1,350.5,1678.8,373.5,1649.9,399z"/>
			<path class="st2" d="M1675.1,429.7c-43,23.6-32.3,44.8-10.9,31.2c61-38.7,119.5-77.2,175.2-123.2
				C1800.1,355.6,1835.6,341.8,1675.1,429.7z"/>
			<path class="st2" d="M1669.5,504.3c-23.3,9.2-31.4-11.4-2.5-18.4C1780.8,458.4,1875.3,423.1,1669.5,504.3z"/>
			<path class="st2" d="M1636.3,544.2c-0.4-10.2,9.2-22.7,40-14.7c68.3,17.6,136,37.8,202.8,60.4c-75.3-7.9-148.3-18.9-222.8-32.8
				C1646.2,555.3,1636.8,554.6,1636.3,544.2z"/>
			<path class="st2" d="M1631.4,579.9c-3.6-20.7,94.2,45.6,110.9,59.6C1695.1,627.2,1633,589,1631.4,579.9z"/>
			<path class="st2" d="M1612,612.5c-6.8-7.4,1.9-17.6,17.3-6c80.3,60.2,188.4,165.5,49.4,52.5
				C1665.7,648.5,1612.1,612.6,1612,612.5z"/>
			<path class="st2" d="M1614.8,638.7c-14.5-16.1-25.7-14.3-30.2-7.3c-10.1,16,35.7,51.7,61.6,71.5
				C1737.8,773.1,1757.9,796.9,1614.8,638.7z"/>
			<path class="st2" d="M1580.4,674.4c-25.1-38.1-40.4-19.6-15.2,12.3c86.7,109.8,65.7,74.8,73.1,88.8
				C1620,740.8,1601.6,706.6,1580.4,674.4z"/>
			<path class="st2" d="M1550.9,699.7c-20.3-44.6-42.3-35.5-30.3-13.1c34.1,63.6,68.2,124.8,110,183.8
				C1615.7,829.8,1626.8,866.2,1550.9,699.7z"/>
			<path class="st2" d="M1479.1,685.4c-5.9-24.3,15.7-29.5,18.6,0.1C1509.2,802,1531,900.5,1479.1,685.4z"/>
			<path class="st2" d="M1437.6,646.1c10.2,1,21.2,12.2,9,41.6c-27,65.2-56.4,129.4-88.1,192.4c18.3-73.5,39.3-144.2,63.5-216
				C1425.3,654.3,1427.3,645.1,1437.6,646.1z"/>
			<path class="st2" d="M1402.9,636.2c21-0.6-58.3,87-74.4,101.6C1347.2,692.7,1393.8,636.5,1402.9,636.2z"/>
			<path class="st2" d="M1373.4,612.4c8.2-5.7,17.1,4.3,3.5,18c-70.8,71.1-190.2,163.5-58.9,41.6
				C1330.2,660.7,1373.3,612.5,1373.4,612.4z"/>
			<path class="st2" d="M1347.1,611.6c18-12.2,17.8-23.5,11.4-28.8c-14.5-12.2-56.1,28.2-79.4,51
				C1196.8,714.6,1170.5,731.2,1347.1,611.6z"/>
			<path class="st2" d="M1316.5,572.6c41.2-19.5,25.1-37.2-10-16.7c-120.8,70.6-83.2,54.7-98.1,60.1
				C1245.3,602.5,1281.7,589.1,1316.5,572.6z"/>
			<path class="st2" d="M1295.6,539.9c47-13.9,41-36.9,17.2-28.2c-67.8,24.9-133.1,50.1-197.3,83.3
				C1157.7,585.8,1120.1,591.8,1295.6,539.9z"/>
			<path class="st2" d="M1319.7,470.8c24.9-2.4,27,19.6-2.7,18.4C1200,484.4,1099.5,492.2,1319.7,470.8z"/>
			<path class="st2" d="M1369,432.2c-1.3,10.1-12.8,20.8-41.9,7.9c-64.4-28.7-127.8-59.9-190-93.3c73,20.3,143.1,43.2,214.2,69.3
				C1361.1,419.6,1370.2,421.9,1369,432.2z"/>
			<path class="st2" d="M1379,402.3c-2.3,20.9-78-69.9-90.2-87.9C1330.9,339.2,1380,393.1,1379,402.3z"/>
			<path class="st2" d="M1406.7,376.3c4.5,8.9-6.7,16.4-18.3,1c-60.5-80-135.4-211.1-33-64.1
				C1364.9,326.8,1406.6,376.2,1406.7,376.3z"/>
			<path class="st2" d="M1411.2,350.4c9.5,19.5,20.8,20.9,27,15.3c14.1-12.6-20.1-59.5-39.5-85.8
				C1330.1,187.2,1317.4,158.8,1411.2,350.4z"/>
			<path class="st2" d="M1454.1,325.5c13.6,43.5,33.4,30,18-7.6c-53.1-129.4-42.5-90-45.8-105.5
				C1434.4,250.8,1442.6,288.7,1454.1,325.5z"/>
			<path class="st2" d="M1568.5,483.8c-16.1-62.3-95.1-78.4-141.5-19c-27.3,34.9-30.4,86.7,4.7,125.7c52.6,58.5,65.7,24.6,55.1,25.7
				c-11.8,1.2-91.9-49.6-63.7-122.3c18.4-47.4,79.2-75.1,117.6-36.9c37.2,37,15.3,102.5-29.2,107.3c-29.4,3.2-63.4-25.2-40.6-65.7
				c14.9-26.5,39.3-28.6,50.3-10c12.7,21.4-2.9,48.1-21.9,42.9c-17.2-4.7-9.8-25.1,2.9-24.5c4.8,0.2,4.8-6.2,1-7.7
				c-13.1-5.5-25,7.6-25.8,20c-1.5,24.4,41.1,38,56.1,3.4c12.3-28.4-8.4-60.7-35.9-57.4c-27.9,3.3-49.9,39.6-44.9,68.6
				c4.1,23.8,30.1,43.7,56.8,42.2C1547.9,573.6,1580.6,530.7,1568.5,483.8z"/>
		</g>
		<g>
			<path class="st1" d="M1117,11c-13.1-1.7-17.6,3.5-16.9,8.6c1.7,11.4,37,9.8,56.9,8.8C1227.3,24.6,1246.1,27.7,1117,11z"/>
			<path class="st1" d="M1117,44c-26.7-7.7-26.5,6.9-2.2,11.7c83.7,16.6,60.1,8.7,69.1,12.2C1161.7,59.1,1139.6,50.5,1117,44z"/>
			<path class="st1" d="M1109.4,67c-26.2-14.4-33.6-1.9-19.6,4.6c39.9,18.7,78.9,36.2,120.8,49.8
				C1188.6,107.1,1207.3,120.8,1109.4,67z"/>
			<path class="st1" d="M1069.2,88.6c-12.4-9-4.4-19.9,8.7-7.3C1129.3,130.8,1178.4,167.8,1069.2,88.6z"/>
			<path class="st1" d="M1037.8,84.5c5.1-3.6,14.7-2.7,20.7,15.8c13.3,40.9,25.1,82.4,35.3,124.2c-20.6-41.4-38.9-82.5-56.1-125.4
				C1035.3,93.2,1032.6,88.2,1037.8,84.5z"/>
			<path class="st1" d="M1017.8,93.7c9.5-8.6,7.4,63.4,5.7,76.6C1014.3,142,1013.6,97.5,1017.8,93.7z"/>
			<path class="st1" d="M994.6,94.4c1.6-5.9,9.7-4.8,8.8,7c-4.7,61-23.5,151.2-10.9,42.6C993.7,133.9,994.6,94.5,994.6,94.4z"/>
			<path class="st1" d="M982.1,104.4c3.5-12.8-1-17.9-6.1-17.9c-11.6,0.1-14.9,35.3-16.6,55.1C953.2,211.7,947.5,229.9,982.1,104.4z
				"/>
			<path class="st1" d="M952.5,98.4c11.4-25.4-3.1-27.2-11.3-3.8c-28.1,80.6-17,58.3-21.7,66.7C931.3,140.5,942.8,119.9,952.5,98.4z
				"/>
			<path class="st1" d="M929.8,91.5c16.3-25.1,4.4-33.4-3.2-19.9c-21.6,38.4-41.9,76-58.6,116.8C884,167.5,868.9,185.1,929.8,91.5z"
				/>
			<path class="st1" d="M913.6,49.9c10.6-11,20.3-1.6,6,9.6C863.4,103.6,819.9,147.1,913.6,49.9z"/>
			<path class="st1" d="M920.3,15.7c2.8,5.5,0.6,14.9-18.5,18.3c-42.4,7.5-85.1,13.4-127.9,17.7c43.8-14.7,87.1-27,132-38.1
				C912,12,917.4,10,920.3,15.7z"/>
		</g>
	</g>
	<g>
		<g>
			<path class="st2" d="M2000,1927.8v72.1h-60.7c-1-25.5,9.7-51.3,30.9-63.9C1979.5,1930.5,1989.7,1927.9,2000,1927.8z"/>
			<path class="st1" d="M1914,1994.4c7.2,10.6-63.8-1.5-76.7-5.1C1866.6,1984.2,1910.8,1989.8,1914,1994.4z"/>
			<path class="st1" d="M1916.5,1971.4c5.6,2.4,3.4,10.2-8.1,7.7c-59.8-13.2-146.4-44.3-40.7-16.7
				C1877.6,1965,1916.5,1971.4,1916.5,1971.4z"/>
			<path class="st1" d="M1908.4,1957.6c12.1,5.3,17.9,1.5,18.6-3.6c1.6-11.5-32.9-19.7-52.3-24.2
				C1806.1,1914,1788.9,1905.9,1908.4,1957.6z"/>
			<path class="st1" d="M1918.4,1929c23.5,14.8,27.4,0.7,5.3-10.6c-75.9-39-55.4-24.9-63-30.8
				C1879.7,1902.2,1898.5,1916.5,1918.4,1929z"/>
			<path class="st1" d="M1928.4,1907.6c22.6,19.6,32.4,9,20.1-0.4c-35-26.7-69.4-52.1-107.5-74.3
				C1859.6,1851.7,1844.2,1834.3,1928.4,1907.6z"/>
			<path class="st1" d="M1971.9,1897.3c9.4,12-1.2,20.4-10.4,4.6C1925.7,1840.2,1888.7,1791,1971.9,1897.3z"/>
			<path class="st1" d="M2000,1850.6v59.4c-4.1-2-8.1-7.5-9.8-18.9c-6.3-42.6-11-85.4-14.2-128.3
				C1984.9,1792,1992.8,1821.1,2000,1850.6z"/>
			<path class="st1" d="M2000,1950.4v6.8c-2.1,0.2-4.1,0.4-6.1,0.8c-25.2,5-36.8,24.3-41.4,41.8h-7c0.4-1.8,0.9-3.7,1.5-5.7
				C1954.5,1967.2,1976.6,1952.1,2000,1950.4z"/>
			<path class="st1" d="M1983.1,1986.4c4.5-4.1,10.5-6.9,16.9-8.2v7.1c-9.4,2.3-15.1,7.9-17.7,14.6h-7.2
				C1976.6,1994.7,1979.3,1989.9,1983.1,1986.4z"/>
			<path class="st1" d="M1998.7,1994.4c0.4-0.2,0.9-0.4,1.3-0.6v6.2h-6.5C1994.6,1997.6,1996.3,1995.7,1998.7,1994.4z"/>
		</g>
	</g>
	<g>
		<g>
			<path class="st1" d="M1088.7,1962.6c-4.2-4.6-4.7-14.2,12.7-22.7c38.7-18.9,78.1-36.3,118.1-52.3c-38.1,26.2-76.3,50-116.3,73
				C1097.6,1963.9,1093,1967.3,1088.7,1962.6z"/>
			<path class="st1" d="M1101.5,1976.9c-9.9-8.2,61.8-16.1,75.1-16.3C1149.8,1973.7,1105.8,1980.5,1101.5,1976.9z"/>
			<path class="st1" d="M1105.4,1999.7c-6.1-0.7-6.1-8.9,5.7-9.6c61.1-3.9,153,2.2,43.7,4.8
				C1144.6,1995.2,1105.5,1999.7,1105.4,1999.7z"/>
			<path class="st1" d="M1007.9,1910c-5.6,2.7-14.9,0.2-17.8-19c-6.3-42.6-11.1-85.4-14.2-128.3c13.5,44.2,24.6,87.8,34.5,133
				C1011.8,1901.9,1013.6,1907.3,1007.9,1910z"/>
			<path class="st1" d="M1026.6,1905.4c-11.5,5.7,10.4-63,15.7-75.2C1043.3,1860,1031.6,1902.9,1026.6,1905.4z"/>
			<path class="st1" d="M1049,1911.2c-3.1,5.2-10.6,1.9-6.5-9.1c21.4-57.4,64.3-138.8,22.2-37.9
				C1060.8,1873.5,1049.1,1911.1,1049,1911.2z"/>
			<path class="st1" d="M1063.8,1905c-6.9,11.3-3.9,17.5,1,18.9c11.1,3.1,24.1-29.8,31.2-48.4
				C1121.3,1809.8,1131.7,1793.9,1063.8,1905z"/>
			<path class="st1" d="M1090.7,1918.9c-17.9,21.2-4.5,27,9.8,6.7c49.2-69.7,32.4-51.4,39.3-58.1
				C1122.7,1884.3,1105.9,1901,1090.7,1918.9z"/>
		</g>
	</g>
	<g>
		<g>
			<path class="st2" d="M2000,927.9v139.2c-2.3-0.2-4.6-0.5-6.8-0.9c-65.4-12.2-69.2-102.6-23-130
				C1979.5,930.6,1989.7,928,2000,927.9z"/>
			<path class="st1" d="M2000,1091.2v42.7c-6.8,53.4-17.9,100.1-7.4,10c1.2-10.1,2.1-49.5,2.1-49.6
				C1995.4,1091.3,1997.9,1090.1,2000,1091.2z"/>
			<path class="st1" d="M1982.1,1104.3c3.5-12.8-1-17.9-6.1-17.9c-11.6,0.1-14.9,35.3-16.6,55.1
				C1953.2,1211.6,1947.5,1229.8,1982.1,1104.3z"/>
			<path class="st1" d="M1952.5,1098.3c11.4-25.4-3.1-27.2-11.3-3.8c-28.1,80.6-17,58.3-21.7,66.7
				C1931.3,1140.4,1942.8,1119.8,1952.5,1098.3z"/>
			<path class="st1" d="M1929.8,1091.4c16.3-25.1,4.4-33.4-3.2-19.9c-21.6,38.4-41.9,76-58.6,116.8
				C1884,1167.4,1868.9,1185,1929.8,1091.4z"/>
			<path class="st1" d="M1913.6,1049.8c10.6-11,20.3-1.6,6,9.6C1863.4,1103.5,1819.9,1147,1913.6,1049.8z"/>
			<path class="st1" d="M1920.3,1015.6c2.8,5.5,0.6,14.9-18.5,18.3c-42.4,7.5-85.1,13.4-127.9,17.7c43.8-14.7,87.1-27,132-38.1
				C1912,1011.9,1917.4,1009.9,1920.3,1015.6z"/>
			<path class="st1" d="M2000,950.5v6.8c-2.1,0.2-4.1,0.4-6.1,0.8c-46.6,9.3-46.5,67.1-42.1,72.8c4,5.1-17.7,9.5-4.8-36.8
				C1954.5,967.3,1976.6,952.2,2000,950.5z"/>
			<path class="st1" d="M1998.7,994.5c0.4-0.2,0.9-0.4,1.3-0.6v9.1c-1,1.7-1.3,4-0.5,6.8c0.1,0.4,0.3,0.9,0.5,1.2v10.5
				C1990.2,1014.8,1989.3,999.7,1998.7,994.5z"/>
			<path class="st1" d="M1983.1,986.5c4.5-4.1,10.5-6.9,16.9-8.2v7.1c-21.7,5.3-23.7,28.6-13.4,41.4c3.6,4.5,8.2,7.6,13.4,9.4v7.1
				c-8.1-2.3-15.2-7-20-13.6C1970.5,1016.3,1972.2,996.4,1983.1,986.5z"/>
		</g>
	</g>
	<g>
		<g>
			<path class="st1" d="M1571.7,1589.7c47.1-50.4,49.9-142.5-17.8-180.1c-70.8-39.4-179.6,14.6-182.2,97.5
				C1369,1595,1497.4,1669.3,1571.7,1589.7z"/>
			<path class="st2" d="M1512.8,1366.7c-10,1.9-23.7-5.9-20.2-37.5c7.9-70.1,18.5-139.9,31.6-209.3c2.7,75.7,2,149.5-1.4,225.1
				C1522.4,1355.4,1523,1364.8,1512.8,1366.7z"/>
			<path class="st2" d="M1543.8,1361.5c-20,6.4,32.1-99.7,43.5-118.2C1581.8,1291.9,1552.5,1358.7,1543.8,1361.5z"/>
			<path class="st2" d="M1578.8,1376.3c-6.3,7.7-17.7,0.6-8.3-16.3c48.4-87.9,137.6-209.7,45.1-56.2
				C1607,1318,1578.9,1376.1,1578.8,1376.3z"/>
			<path class="st2" d="M1604.3,1369.8c-13.9,16.6-10.6,27.5-3,30.9c17.3,7.8,46.2-42.6,62.2-71
				C1720.3,1229.3,1741,1206.1,1604.3,1369.8z"/>
			<path class="st2" d="M1649.9,1398.9c-34.2,30.1-13.8,42.7,14.3,13.3c96.6-101.2,64.9-75.5,77.7-84.8
				C1710.1,1350.4,1678.8,1373.4,1649.9,1398.9z"/>
			<path class="st2" d="M1675.1,1429.6c-43,23.6-32.3,44.8-10.9,31.2c61-38.7,119.5-77.2,175.2-123.2
				C1800.1,1355.5,1835.6,1341.7,1675.1,1429.6z"/>
			<path class="st2" d="M1669.5,1504.2c-23.3,9.2-31.4-11.4-2.5-18.4C1780.8,1458.3,1875.3,1423,1669.5,1504.2z"/>
			<path class="st2" d="M1636.3,1544.1c-0.4-10.2,9.2-22.7,40-14.7c68.3,17.6,136,37.8,202.8,60.4c-75.3-7.9-148.3-18.9-222.8-32.8
				C1646.2,1555.2,1636.8,1554.5,1636.3,1544.1z"/>
			<path class="st2" d="M1631.4,1579.8c-3.6-20.7,94.2,45.6,110.9,59.6C1695.1,1627.1,1633,1588.9,1631.4,1579.8z"/>
			<path class="st2" d="M1612,1612.4c-6.8-7.4,1.9-17.6,17.3-6c80.3,60.2,188.4,165.5,49.4,52.5
				C1665.7,1648.4,1612.1,1612.5,1612,1612.4z"/>
			<path class="st2" d="M1614.8,1638.6c-14.5-16.1-25.7-14.3-30.2-7.3c-10.1,16,35.7,51.7,61.6,71.5
				C1737.8,1773,1757.9,1796.8,1614.8,1638.6z"/>
			<path class="st2" d="M1580.4,1674.3c-25.1-38.1-40.4-19.6-15.2,12.3c86.7,109.8,65.7,74.8,73.1,88.8
				C1620,1740.7,1601.6,1706.5,1580.4,1674.3z"/>
			<path class="st2" d="M1550.9,1699.6c-20.3-44.6-42.3-35.5-30.3-13.1c34.1,63.6,68.2,124.8,110,183.8
				C1615.7,1829.7,1626.8,1866.1,1550.9,1699.6z"/>
			<path class="st2" d="M1479.1,1685.3c-5.9-24.3,15.7-29.5,18.6,0.1C1509.2,1801.9,1531,1900.4,1479.1,1685.3z"/>
			<path class="st2" d="M1437.6,1646c10.2,1,21.2,12.2,9,41.6c-27,65.2-56.4,129.4-88.1,192.4c18.3-73.5,39.3-144.2,63.5-216
				C1425.3,1654.2,1427.3,1645,1437.6,1646z"/>
			<path class="st2" d="M1402.9,1636.1c21-0.6-58.3,87-74.4,101.6C1347.2,1692.6,1393.8,1636.4,1402.9,1636.1z"/>
			<path class="st2" d="M1373.4,1612.3c8.2-5.7,17.1,4.3,3.5,18c-70.8,71.1-190.2,163.5-58.9,41.6
				C1330.2,1660.6,1373.3,1612.4,1373.4,1612.3z"/>
			<path class="st2" d="M1347.1,1611.5c18-12.2,17.8-23.5,11.4-28.8c-14.5-12.2-56.1,28.2-79.4,51
				C1196.8,1714.5,1170.5,1731.1,1347.1,1611.5z"/>
			<path class="st2" d="M1316.5,1572.5c41.2-19.5,25.1-37.2-10-16.7c-120.8,70.6-83.2,54.7-98.1,60.1
				C1245.3,1602.4,1281.7,1589,1316.5,1572.5z"/>
			<path class="st2" d="M1295.6,1539.8c47-13.9,41-36.9,17.2-28.2c-67.8,24.9-133.1,50.1-197.3,83.3
				C1157.7,1585.7,1120.1,1591.7,1295.6,1539.8z"/>
			<path class="st2" d="M1319.7,1470.7c24.9-2.4,27,19.6-2.7,18.4C1200,1484.3,1099.5,1492.1,1319.7,1470.7z"/>
			<path class="st2" d="M1369,1432.1c-1.3,10.1-12.8,20.8-41.9,7.9c-64.4-28.7-127.8-59.9-190-93.3c73,20.3,143.1,43.2,214.2,69.3
				C1361.1,1419.5,1370.2,1421.8,1369,1432.1z"/>
			<path class="st2" d="M1379,1402.2c-2.3,20.9-78-69.9-90.2-87.9C1330.9,1339.1,1380,1393,1379,1402.2z"/>
			<path class="st2" d="M1406.7,1376.2c4.5,8.9-6.7,16.4-18.3,1c-60.5-80-135.4-211.1-33-64.1
				C1364.9,1326.7,1406.6,1376.1,1406.7,1376.2z"/>
			<path class="st2" d="M1411.2,1350.3c9.5,19.5,20.8,20.9,27,15.3c14.1-12.6-20.1-59.5-39.5-85.8
				C1330.1,1187.1,1317.4,1158.7,1411.2,1350.3z"/>
			<path class="st2" d="M1454.1,1325.4c13.6,43.5,33.4,30,18-7.6c-53.1-129.4-42.5-90-45.8-105.5
				C1434.4,1250.7,1442.6,1288.6,1454.1,1325.4z"/>
			<path class="st2" d="M1568.5,1483.7c-16.1-62.3-95.1-78.4-141.5-19c-27.3,34.9-30.4,86.7,4.7,125.7
				c52.6,58.5,65.7,24.6,55.1,25.7c-11.8,1.2-91.9-49.6-63.7-122.3c18.4-47.4,79.2-75.1,117.6-36.9c37.2,37,15.3,102.5-29.2,107.3
				c-29.4,3.2-63.4-25.2-40.6-65.7c14.9-26.5,39.3-28.6,50.3-10c12.7,21.4-2.9,48.1-21.9,42.9c-17.2-4.7-9.8-25.1,2.9-24.5
				c4.8,0.2,4.8-6.2,1-7.7c-13.1-5.5-25,7.6-25.8,20c-1.5,24.4,41.1,38,56.1,3.4c12.3-28.4-8.4-60.7-35.9-57.4
				c-27.9,3.3-49.9,39.6-44.9,68.6c4.1,23.8,30.1,43.7,56.8,42.2C1547.9,1573.5,1580.6,1530.6,1568.5,1483.7z"/>
		</g>
		<g>
			<path class="st2" d="M993.2,1066.1c41.4,7.7,89.7-21,86.9-68.1c-2.9-49.3-66.3-87.6-109.9-61.8
				C924,963.5,927.8,1054,993.2,1066.1z"/>
			<path class="st1" d="M1088.7,962.7c-4.2-4.6-4.7-14.2,12.7-22.7c38.7-18.9,78.1-36.3,118.1-52.3c-38.1,26.2-76.3,50-116.3,73
				C1097.6,964,1093,967.4,1088.7,962.7z"/>
			<path class="st1" d="M1101.5,977c-9.9-8.2,61.8-16.1,75.1-16.3C1149.8,973.8,1105.8,980.6,1101.5,977z"/>
			<path class="st1" d="M1105.4,999.8c-6.1-0.7-6.1-8.9,5.7-9.6c61.1-3.9,153,2.2,43.7,4.8C1144.6,995.3,1105.5,999.8,1105.4,999.8z
				"/>
			<path class="st1" d="M1117,1010.9c-13.1-1.7-17.6,3.5-16.9,8.6c1.7,11.4,37,9.8,56.9,8.8
				C1227.3,1024.5,1246.1,1027.6,1117,1010.9z"/>
			<path class="st1" d="M1117,1043.9c-26.7-7.7-26.5,6.9-2.2,11.7c83.7,16.6,60.1,8.7,69.1,12.2
				C1161.7,1059,1139.6,1050.4,1117,1043.9z"/>
			<path class="st1" d="M1109.4,1066.9c-26.2-14.4-33.6-1.9-19.6,4.6c39.9,18.7,78.9,36.2,120.8,49.8
				C1188.6,1107,1207.3,1120.7,1109.4,1066.9z"/>
			<path class="st1" d="M1069.2,1088.5c-12.4-9-4.4-19.9,8.7-7.3C1129.3,1130.7,1178.4,1167.7,1069.2,1088.5z"/>
			<path class="st1" d="M1037.8,1084.4c5.1-3.6,14.7-2.7,20.7,15.8c13.3,40.9,25.1,82.4,35.3,124.2c-20.6-41.4-38.9-82.5-56.1-125.4
				C1035.3,1093.1,1032.6,1088.1,1037.8,1084.4z"/>
			<path class="st1" d="M1017.8,1093.6c9.5-8.6,7.4,63.4,5.7,76.6C1014.3,1141.9,1013.6,1097.4,1017.8,1093.6z"/>
			<path class="st1" d="M994.6,1094.3c1.6-5.9,9.7-4.8,8.8,7c-4.7,61-23.5,151.2-10.9,42.6C993.7,1133.8,994.6,1094.4,994.6,1094.3z
				"/>
			<path class="st1" d="M982.1,1104.3c3.5-12.8-1-17.9-6.1-17.9c-11.6,0.1-14.9,35.3-16.6,55.1
				C953.2,1211.6,947.5,1229.8,982.1,1104.3z"/>
			<path class="st1" d="M952.5,1098.3c11.4-25.4-3.1-27.2-11.3-3.8c-28.1,80.6-17,58.3-21.7,66.7
				C931.3,1140.4,942.8,1119.8,952.5,1098.3z"/>
			<path class="st1" d="M929.8,1091.4c16.3-25.1,4.4-33.4-3.2-19.9c-21.6,38.4-41.9,76-58.6,116.8
				C884,1167.4,868.9,1185,929.8,1091.4z"/>
			<path class="st1" d="M913.6,1049.8c10.6-11,20.3-1.6,6,9.6C863.4,1103.5,819.9,1147,913.6,1049.8z"/>
			<path class="st1" d="M920.3,1015.6c2.8,5.5,0.6,14.9-18.5,18.3c-42.4,7.5-85.1,13.4-127.9,17.7c43.8-14.7,87.1-27,132-38.1
				C912,1011.9,917.4,1009.9,920.3,1015.6z"/>
			<path class="st1" d="M914,994.5c7.2,10.6-63.8-1.5-76.7-5.1C866.6,984.3,910.8,989.9,914,994.5z"/>
			<path class="st1" d="M916.5,971.5c5.6,2.4,3.4,10.2-8.1,7.7c-59.8-13.2-146.4-44.3-40.7-16.7
				C877.6,965.1,916.5,971.5,916.5,971.5z"/>
			<path class="st1" d="M908.4,957.7c12.1,5.3,17.9,1.5,18.6-3.6c1.6-11.5-32.9-19.7-52.3-24.2C806.1,914.1,788.9,906,908.4,957.7z"
				/>
			<path class="st1" d="M918.4,929.1c23.5,14.8,27.4,0.7,5.3-10.6c-75.9-39-55.4-24.9-63-30.8C879.7,902.3,898.5,916.6,918.4,929.1z
				"/>
			<path class="st1" d="M928.4,907.7c22.6,19.6,32.4,9,20.1-0.4c-35-26.7-69.4-52.1-107.5-74.3C859.6,851.8,844.2,834.4,928.4,907.7
				z"/>
			<path class="st1" d="M971.9,897.4c9.4,12-1.2,20.4-10.4,4.6C925.7,840.3,888.7,791.1,971.9,897.4z"/>
			<path class="st1" d="M1007.9,910.1c-5.6,2.7-14.9,0.2-17.8-19c-6.3-42.6-11.1-85.4-14.2-128.3c13.5,44.2,24.6,87.8,34.5,133
				C1011.8,902,1013.6,907.4,1007.9,910.1z"/>
			<path class="st1" d="M1026.6,905.5c-11.5,5.7,10.4-63,15.7-75.2C1043.3,860.1,1031.6,903,1026.6,905.5z"/>
			<path class="st1" d="M1049,911.3c-3.1,5.2-10.6,1.9-6.5-9.1c21.4-57.4,64.3-138.8,22.2-37.9
				C1060.8,873.6,1049.1,911.2,1049,911.3z"/>
			<path class="st1" d="M1063.8,905.1c-6.9,11.3-3.9,17.5,1,18.9c11.1,3.1,24.1-29.8,31.2-48.4
				C1121.3,809.9,1131.7,794,1063.8,905.1z"/>
			<path class="st1" d="M1090.7,919c-17.9,21.2-4.5,27,9.8,6.7c49.2-69.7,32.4-51.4,39.3-58.1C1122.7,884.4,1105.9,901.1,1090.7,919
				z"/>
			<path class="st1" d="M1046.7,1029.7c26.8-28.7,9.2-74.6-36.5-79.1c-26.9-2.6-54.6,12.7-63.1,43.6c-12.9,46.2,8.8,41.9,4.8,36.8
				c-4.5-5.7-4.6-63.5,42-72.8c30.4-6.1,64.6,16.2,57.5,48.4c-6.8,31.2-47.7,41.5-64.8,20.1c-11.3-14.1-7.8-40.9,20.5-42.4
				c18.5-1,27.6,10.9,21.7,22.6c-6.9,13.5-25.7,14.3-29.2,2.8c-3.2-10.4,9.7-13.3,13.6-6.6c1.5,2.5,4.8,0.5,4.3-2
				c-1.5-8.6-12.1-10.4-18.7-6.7c-13.1,7.2-6.1,33.6,16.6,30c18.6-3,28.5-24.2,17.8-37.3c-10.9-13.3-36.7-12.7-50-0.6
				c-10.9,9.9-12.7,29.8-3.1,43.1C993.7,1048.6,1026.5,1051.4,1046.7,1029.7z"/>
		</g>
	</g>
	<g>
		<g>
			<path class="st2" d="M993.2,1066.1c41.4,7.7,89.7-21,86.9-68.1c-2.9-49.3-66.3-87.6-109.9-61.8
				C924,963.5,927.8,1054,993.2,1066.1z"/>
			<path class="st1" d="M914,994.5c7.2,10.6-63.8-1.5-76.7-5.1C866.6,984.3,910.8,989.9,914,994.5z"/>
			<path class="st1" d="M916.5,971.5c5.6,2.4,3.4,10.2-8.1,7.7c-59.8-13.2-146.4-44.3-40.7-16.7
				C877.6,965.1,916.5,971.5,916.5,971.5z"/>
			<path class="st1" d="M908.4,957.7c12.1,5.3,17.9,1.5,18.6-3.6c1.6-11.5-32.9-19.7-52.3-24.2C806.1,914.1,788.9,906,908.4,957.7z"
				/>
			<path class="st1" d="M918.4,929.1c23.5,14.8,27.4,0.7,5.3-10.6c-75.9-39-55.4-24.9-63-30.8C879.7,902.3,898.5,916.6,918.4,929.1z
				"/>
			<path class="st1" d="M928.4,907.7c22.6,19.6,32.4,9,20.1-0.4c-35-26.7-69.4-52.1-107.5-74.3C859.6,851.8,844.2,834.4,928.4,907.7
				z"/>
			<path class="st1" d="M971.9,897.4c9.4,12-1.2,20.4-10.4,4.6C925.7,840.3,888.7,791.1,971.9,897.4z"/>
			<path class="st1" d="M1007.9,910.1c-5.6,2.7-14.9,0.2-17.8-19c-6.3-42.6-11.1-85.4-14.2-128.3c13.5,44.2,24.6,87.8,34.5,133
				C1011.8,902,1013.6,907.4,1007.9,910.1z"/>
			<path class="st1" d="M1046.7,1029.7c26.8-28.7,9.2-74.6-36.5-79.1c-26.9-2.6-54.6,12.7-63.1,43.6c-12.9,46.2,8.8,41.9,4.8,36.8
				c-4.5-5.7-4.6-63.5,42-72.8c30.4-6.1,64.6,16.2,57.5,48.4c-6.8,31.2-47.7,41.5-64.8,20.1c-11.3-14.1-7.8-40.9,20.5-42.4
				c18.5-1,27.6,10.9,21.7,22.6c-6.9,13.5-25.7,14.3-29.2,2.8c-3.2-10.4,9.7-13.3,13.6-6.6c1.5,2.5,4.8,0.5,4.3-2
				c-1.5-8.6-12.1-10.4-18.7-6.7c-13.1,7.2-6.1,33.6,16.6,30c18.6-3,28.5-24.2,17.8-37.3c-10.9-13.3-36.7-12.7-50-0.6
				c-10.9,9.9-12.7,29.8-3.1,43.1C993.7,1048.6,1026.5,1051.4,1046.7,1029.7z"/>
		</g>
	</g>
	<g>
		<g>
			<path class="st1" d="M88.7,962.7c-4.2-4.6-4.7-14.2,12.7-22.7c38.7-18.9,78.1-36.3,118.1-52.3c-38.1,26.2-76.3,50-116.3,73
				C97.6,964,93,967.4,88.7,962.7z"/>
			<path class="st1" d="M101.5,977c-9.9-8.2,61.8-16.1,75.1-16.3C149.8,973.8,105.8,980.6,101.5,977z"/>
			<path class="st1" d="M105.4,999.8c-6.1-0.7-6.1-8.9,5.7-9.6c61.1-3.9,153,2.2,43.7,4.8C144.6,995.3,105.5,999.8,105.4,999.8z"/>
			<path class="st1" d="M26.6,905.5c-11.5,5.7,10.4-63,15.7-75.2C43.3,860.1,31.6,903,26.6,905.5z"/>
			<path class="st1" d="M49,911.3c-3.1,5.2-10.6,1.9-6.5-9.1c21.4-57.4,64.3-138.8,22.2-37.9C60.8,873.6,49.1,911.2,49,911.3z"/>
			<path class="st1" d="M63.8,905.1c-6.9,11.3-3.9,17.5,1,18.9c11.1,3.1,24.1-29.8,31.2-48.4C121.3,809.9,131.7,794,63.8,905.1z"/>
			<path class="st1" d="M90.7,919c-17.9,21.2-4.5,27,9.8,6.7c49.2-69.7,32.4-51.4,39.3-58.1C122.7,884.4,105.9,901.1,90.7,919z"/>
		</g>
	</g>
	<g>
		<g>
			<path class="st2" d="M993.2,66.2c-35.4-6.6-52.7-36.1-53.9-66.1h140.8C1081.4,46,1034,73.8,993.2,66.2z"/>
			<path class="st1" d="M994.6,94.4c1.6-5.9,9.7-4.8,8.8,7c-4.7,61-23.5,151.2-10.9,42.6C993.7,133.9,994.6,94.5,994.6,94.4z"/>
			<path class="st1" d="M982.1,104.4c3.5-12.8-1-17.9-6.1-17.9c-11.6,0.1-14.9,35.3-16.6,55.1C953.2,211.7,947.5,229.9,982.1,104.4z
				"/>
			<path class="st1" d="M952.5,98.4c11.4-25.4-3.1-27.2-11.3-3.8c-28.1,80.6-17,58.3-21.7,66.7C931.3,140.5,942.8,119.9,952.5,98.4z
				"/>
			<path class="st1" d="M929.8,91.5c16.3-25.1,4.4-33.4-3.2-19.9c-21.6,38.4-41.9,76-58.6,116.8C884,167.5,868.9,185.1,929.8,91.5z"
				/>
			<path class="st1" d="M913.6,49.9c10.6-11,20.3-1.6,6,9.6C863.4,103.6,819.9,147.1,913.6,49.9z"/>
			<path class="st1" d="M920.3,15.7c2.8,5.5,0.6,14.9-18.5,18.3c-42.4,7.5-85.1,13.4-127.9,17.7c43.8-14.7,87.1-27,132-38.1
				C912,12,917.4,10,920.3,15.7z"/>
			<path class="st1" d="M952.5,0.1c-3.9,14.8-2.8,28.4-0.7,31c3.8,4.9-15.9,9.1-6.3-31H952.5z"/>
			<path class="st1" d="M1009.2,0.1h8c0.1,0.4,0.2,0.8,0.3,1.2c0.4,2.5-2.9,4.6-4.3,2C1012.2,1.7,1010.7,0.6,1009.2,0.1z"/>
			<path class="st1" d="M1037.5,0.1c-0.2,11-9,22.3-22.2,24.4c-18.6,3-26.6-14.2-21.8-24.4h10.2c-3.4,1.1-5.9,4.5-4.3,9.7
				c3.5,11.5,22.4,10.8,29.2-2.8c1.2-2.3,1.8-4.7,1.8-6.9C1030.4,0.1,1037.5,0.1,1037.5,0.1z"/>
			<path class="st1" d="M1059.3,0.1c-0.3,10.4-4.3,20.9-12.6,29.7c-20.2,21.6-53,18.8-66.7-0.2c-6.2-8.6-7.6-19.9-4.9-29.6h7.2
				c-3.4,8.8-1.6,19.5,4.3,26.8c17.1,21.3,58,11.1,64.8-20.1c0.5-2.3,0.8-4.5,0.9-6.6C1052.3,0.1,1059.3,0.1,1059.3,0.1z"/>
		</g>
	</g>
	<g>
		<g>
			<path class="st1" d="M571.7,589.8c47.1-50.4,49.9-142.5-17.8-180.1c-70.8-39.4-179.6,14.6-182.2,97.5
				C369,595.1,497.4,669.4,571.7,589.8z"/>
			<path class="st2" d="M512.8,366.8c-10,1.9-23.7-5.9-20.2-37.5c7.9-70.1,18.5-139.9,31.6-209.3c2.7,75.7,2,149.5-1.4,225.1
				C522.4,355.5,523,364.9,512.8,366.8z"/>
			<path class="st2" d="M543.8,361.6c-20,6.4,32-99.7,43.5-118.2C581.8,292,552.5,358.8,543.8,361.6z"/>
			<path class="st2" d="M578.8,376.4c-6.3,7.7-17.7,0.6-8.3-16.3c48.4-87.9,137.6-209.7,45.1-56.2
				C607,318.1,578.9,376.2,578.8,376.4z"/>
			<path class="st2" d="M604.3,369.9c-13.9,16.6-10.6,27.5-3,30.9c17.3,7.8,46.2-42.6,62.2-71C720.3,229.4,741,206.2,604.3,369.9z"
				/>
			<path class="st2" d="M649.9,399c-34.2,30.1-13.8,42.7,14.3,13.3c96.6-101.2,64.9-75.5,77.7-84.8
				C710.1,350.5,678.8,373.5,649.9,399z"/>
			<path class="st2" d="M675.1,429.7c-43,23.6-32.3,44.8-10.9,31.2c61-38.7,119.5-77.2,175.2-123.2
				C800.1,355.6,835.6,341.8,675.1,429.7z"/>
			<path class="st2" d="M669.5,504.3c-23.3,9.2-31.4-11.4-2.5-18.4C780.8,458.4,875.3,423.1,669.5,504.3z"/>
			<path class="st2" d="M636.3,544.2c-0.4-10.2,9.2-22.7,40-14.7c68.3,17.6,136,37.8,202.8,60.4c-75.3-7.9-148.3-18.9-222.8-32.8
				C646.2,555.3,636.8,554.6,636.3,544.2z"/>
			<path class="st2" d="M631.4,579.9c-3.6-20.7,94.2,45.6,110.9,59.6C695.1,627.2,633,589,631.4,579.9z"/>
			<path class="st2" d="M612,612.5c-6.8-7.4,1.9-17.6,17.3-6c80.3,60.2,188.4,165.5,49.4,52.5C665.7,648.5,612.1,612.6,612,612.5z"
				/>
			<path class="st2" d="M614.8,638.7c-14.5-16.1-25.7-14.3-30.2-7.3c-10.1,16,35.7,51.7,61.6,71.5
				C737.8,773.1,757.9,796.9,614.8,638.7z"/>
			<path class="st2" d="M580.4,674.4c-25.1-38.1-40.4-19.6-15.2,12.3c86.7,109.8,65.7,74.8,73.1,88.8
				C620,740.8,601.6,706.6,580.4,674.4z"/>
			<path class="st2" d="M550.9,699.7c-20.3-44.6-42.3-35.5-30.3-13.1c34.1,63.6,68.2,124.8,110,183.8
				C615.7,829.8,626.8,866.2,550.9,699.7z"/>
			<path class="st2" d="M479.1,685.4c-5.9-24.3,15.7-29.5,18.6,0.1C509.2,802,531,900.5,479.1,685.4z"/>
			<path class="st2" d="M437.6,646.1c10.2,1,21.2,12.2,9,41.6c-27,65.2-56.4,129.4-88.1,192.4c18.3-73.5,39.3-144.2,63.5-216
				C425.3,654.3,427.3,645.1,437.6,646.1z"/>
			<path class="st2" d="M402.9,636.2c21-0.6-58.3,87-74.4,101.6C347.2,692.7,393.8,636.5,402.9,636.2z"/>
			<path class="st2" d="M373.4,612.4c8.2-5.7,17.1,4.3,3.5,18C306.1,701.5,186.8,794,318,672C330.2,660.7,373.3,612.5,373.4,612.4z"
				/>
			<path class="st2" d="M347.1,611.6c18-12.2,17.8-23.5,11.4-28.8c-14.5-12.2-56.1,28.2-79.4,51
				C196.8,714.6,170.5,731.2,347.1,611.6z"/>
			<path class="st2" d="M316.5,572.6c41.2-19.5,25.1-37.2-10-16.7c-120.8,70.6-83.2,54.7-98.1,60.1
				C245.3,602.5,281.7,589.1,316.5,572.6z"/>
			<path class="st2" d="M295.6,539.9c47-13.9,41-36.9,17.2-28.2C245,536.6,179.7,561.8,115.5,595
				C157.7,585.8,120.1,591.8,295.6,539.9z"/>
			<path class="st2" d="M319.7,470.8c24.9-2.4,27,19.6-2.7,18.4C200,484.4,99.5,492.2,319.7,470.8z"/>
			<path class="st2" d="M369,432.2c-1.3,10.1-12.8,20.8-41.9,7.9c-64.4-28.7-127.8-59.9-190-93.3c73,20.3,143.1,43.2,214.2,69.3
				C361.1,419.6,370.2,421.9,369,432.2z"/>
			<path class="st2" d="M379,402.3c-2.3,20.9-78-69.9-90.2-87.9C330.9,339.2,380,393.1,379,402.3z"/>
			<path class="st2" d="M406.7,376.3c4.5,8.9-6.7,16.4-18.3,1c-60.5-80-135.4-211.1-33-64.1C364.9,326.8,406.6,376.2,406.7,376.3z"
				/>
			<path class="st2" d="M411.2,350.4c9.5,19.5,20.8,20.9,27,15.3c14.1-12.6-20.1-59.5-39.5-85.8
				C330.1,187.2,317.4,158.8,411.2,350.4z"/>
			<path class="st2" d="M454.1,325.5c13.6,43.5,33.4,30,18-7.6c-53.1-129.4-42.5-90-45.8-105.5C434.4,250.8,442.6,288.7,454.1,325.5
				z"/>
			<path class="st2" d="M568.5,483.8c-16.1-62.3-95.1-78.4-141.5-19c-27.3,34.9-30.4,86.7,4.7,125.7c52.6,58.5,65.7,24.6,55.1,25.7
				c-11.8,1.2-91.9-49.6-63.7-122.3c18.4-47.4,79.2-75.1,117.6-36.9c37.2,37,15.3,102.5-29.2,107.3c-29.4,3.2-63.4-25.2-40.6-65.7
				c14.9-26.5,39.3-28.6,50.3-10c12.7,21.4-2.9,48.1-21.9,42.9c-17.2-4.7-9.8-25.1,2.9-24.5c4.8,0.2,4.8-6.2,1-7.7
				c-13.1-5.5-25,7.6-25.8,20c-1.5,24.4,41.1,38,56.1,3.4c12.3-28.4-8.4-60.7-35.9-57.4c-27.9,3.3-49.9,39.6-44.9,68.6
				c4.1,23.8,30.1,43.7,56.8,42.2C547.9,573.6,580.6,530.7,568.5,483.8z"/>
		</g>
		<g>
			<path class="st2" d="M0,67.2V0.1h80.1C81.4,43.5,39.1,70.7,0,67.2z"/>
			<path class="st1" d="M117,11c-13.1-1.7-17.6,3.5-16.9,8.6c1.7,11.4,37,9.8,56.9,8.8C227.3,24.6,246.1,27.7,117,11z"/>
			<path class="st1" d="M117,44c-26.7-7.7-26.5,6.9-2.2,11.7c83.7,16.6,60.1,8.7,69.1,12.2C161.7,59.1,139.6,50.5,117,44z"/>
			<path class="st1" d="M109.4,67c-26.2-14.4-33.6-1.9-19.6,4.6c39.9,18.7,78.9,36.2,120.8,49.8C188.6,107.1,207.3,120.8,109.4,67z"
				/>
			<path class="st1" d="M69.2,88.6c-12.4-9-4.4-19.9,8.7-7.3C129.3,130.8,178.4,167.8,69.2,88.6z"/>
			<path class="st1" d="M37.8,84.5c5.1-3.6,14.7-2.7,20.7,15.8c13.3,40.9,25.1,82.4,35.3,124.2C73.2,183.1,54.9,142,37.7,99.1
				C35.3,93.2,32.6,88.2,37.8,84.5z"/>
			<path class="st1" d="M17.8,93.7c9.5-8.6,7.4,63.4,5.7,76.6C14.3,142,13.6,97.5,17.8,93.7z"/>
			<path class="st1" d="M3.4,101.3c-0.8,10.4-2,21.7-3.4,32.6V91.3C2.1,92.3,3.8,95.5,3.4,101.3z"/>
			<path class="st1" d="M0,3V0.1h3.8C2.2,0.6,0.9,1.6,0,3z"/>
			<path class="st1" d="M9.1,0.1h8c0.1,0.4,0.2,0.8,0.3,1.2c0.4,2.5-2.9,4.6-4.3,2C12.2,1.7,10.7,0.6,9.1,0.1z"/>
			<path class="st1" d="M0,21.6V11.1c4.5,10.2,22.2,9,28.8-4c1.2-2.3,1.8-4.7,1.8-6.9h6.9c-0.2,11-9,22.3-22.2,24.4
				C8.9,25.5,3.8,24.2,0,21.6z"/>
			<path class="st1" d="M59.3,0.1C59,10.5,54.9,21,46.7,29.8C33.5,43.9,15.1,47.6,0,43.3v-7.1c19.4,6.7,46-4.8,51.4-29.5
				c0.5-2.3,0.8-4.5,0.9-6.6C52.3,0.1,59.3,0.1,59.3,0.1z"/>
		</g>
	</g>
	<g>
		<g>
			<path class="st2" d="M1080.1,1999.9H939.3c-1-25.5,9.7-51.3,30.9-63.9c43.5-25.8,106.9,12.5,109.9,61.8
				C1080.1,1998.6,1080.1,1999.2,1080.1,1999.9z"/>
			<path class="st1" d="M914,1994.4c7.2,10.6-63.8-1.5-76.7-5.1C866.6,1984.2,910.8,1989.8,914,1994.4z"/>
			<path class="st1" d="M916.5,1971.4c5.6,2.4,3.4,10.2-8.1,7.7c-59.8-13.2-146.4-44.3-40.7-16.7
				C877.6,1965,916.5,1971.4,916.5,1971.4z"/>
			<path class="st1" d="M908.4,1957.6c12.1,5.3,17.9,1.5,18.6-3.6c1.6-11.5-32.9-19.7-52.3-24.2
				C806.1,1914,788.9,1905.9,908.4,1957.6z"/>
			<path class="st1" d="M918.4,1929c23.5,14.8,27.4,0.7,5.3-10.6c-75.9-39-55.4-24.9-63-30.8C879.7,1902.2,898.5,1916.5,918.4,1929z
				"/>
			<path class="st1" d="M928.4,1907.6c22.6,19.6,32.4,9,20.1-0.4c-35-26.7-69.4-52.1-107.5-74.3
				C859.6,1851.7,844.2,1834.3,928.4,1907.6z"/>
			<path class="st1" d="M971.9,1897.3c9.4,12-1.2,20.4-10.4,4.6C925.7,1840.2,888.7,1791,971.9,1897.3z"/>
			<path class="st1" d="M1007.9,1910c-5.6,2.7-14.9,0.2-17.8-19c-6.3-42.6-11.1-85.4-14.2-128.3c13.5,44.2,24.6,87.8,34.5,133
				C1011.8,1901.9,1013.6,1907.3,1007.9,1910z"/>
			<path class="st1" d="M1017.1,1999.9h-8c-1.7-0.6-3.7-0.6-5.4,0h-10.2c1.1-2.3,2.8-4.2,5.2-5.5
				C1005,1990.9,1014.9,1992.4,1017.1,1999.9z"/>
			<path class="st1" d="M1033.1,1987c3.1,3.8,4.5,8.3,4.4,12.9h-6.9c0.1-9-8.6-16.5-23.5-15.7c-13.7,0.7-21.6,7.4-24.8,15.7h-7.2
				c1.5-5.2,4.2-10,8-13.5C996.4,1974.3,1022.2,1973.7,1033.1,1987z"/>
			<path class="st1" d="M1059.3,1999.9h-7c1.4-28.6-30.1-47.4-58.4-41.8c-25.2,5-36.8,24.3-41.4,41.8h-7c0.4-1.8,0.9-3.7,1.5-5.7
				c8.6-30.9,36.2-46.2,63.1-43.6C1041.8,1953.6,1060,1976.5,1059.3,1999.9z"/>
		</g>
	</g>
	<g>
		<g>
			<path class="st2" d="M80.1,1999.9H0v-72.1c38-0.7,77.8,31.3,80,70.1C80.1,1998.6,80.1,1999.2,80.1,1999.9z"/>
			<path class="st1" d="M88.7,1962.6c-4.2-4.6-4.7-14.2,12.7-22.7c38.7-18.9,78.1-36.3,118.1-52.3c-38.1,26.2-76.3,50-116.3,73
				C97.6,1963.9,93,1967.3,88.7,1962.6z"/>
			<path class="st1" d="M101.5,1976.9c-9.9-8.2,61.8-16.1,75.1-16.3C149.8,1973.7,105.8,1980.5,101.5,1976.9z"/>
			<path class="st1" d="M105.4,1999.7c-6.1-0.7-6.1-8.9,5.7-9.6c61.1-3.9,153,2.2,43.7,4.8C144.6,1995.2,105.5,1999.7,105.4,1999.7z
				"/>
			<path class="st1" d="M7.9,1910c-2.3,1.1-5.1,1.3-7.9,0v-59.4c3.7,14.9,7.1,29.9,10.4,45.1C11.8,1901.8,13.6,1907.3,7.9,1910z"/>
			<path class="st1" d="M26.6,1905.4c-11.5,5.7,10.4-63,15.7-75.2C43.3,1860,31.6,1902.9,26.6,1905.4z"/>
			<path class="st1" d="M49,1911.2c-3.1,5.2-10.6,1.9-6.5-9.1c21.4-57.4,64.3-138.8,22.2-37.9C60.8,1873.5,49.1,1911.1,49,1911.2z"
				/>
			<path class="st1" d="M63.8,1905c-6.9,11.3-3.9,17.5,1,18.9c11.1,3.1,24.1-29.8,31.2-48.4C121.3,1809.8,131.7,1793.9,63.8,1905z"
				/>
			<path class="st1" d="M90.7,1918.9c-17.9,21.2-4.5,27,9.8,6.7c49.2-69.7,32.4-51.4,39.3-58.1C122.7,1884.3,105.9,1901,90.7,1918.9
				z"/>
			<path class="st1" d="M17.1,1999.9h-8c-1.7-0.6-3.6-0.6-5.4,0H0v-6.2C6.3,1991.1,15.1,1992.9,17.1,1999.9z"/>
			<path class="st1" d="M33.1,1987c3.1,3.8,4.5,8.3,4.4,12.9h-6.9c0.1-9-8.6-16.5-23.5-15.7c-2.6,0.1-4.9,0.5-7.1,1v-7.1
				C12.3,1975.6,25.9,1978.3,33.1,1987z"/>
			<path class="st1" d="M59.3,1999.9h-7c1.3-26.6-25.8-44.7-52.3-42.6v-6.8c3.4-0.2,6.8-0.2,10.1,0.1
				C41.8,1953.6,60,1976.5,59.3,1999.9z"/>
		</g>
	</g>
	<g>
		<g>
			<path class="st2" d="M993.2,1066.1c41.4,7.7,89.7-21,86.9-68.1c-2.9-49.3-66.3-87.6-109.9-61.8
				C924,963.5,927.8,1054,993.2,1066.1z"/>
			<path class="st1" d="M994.6,1094.3c1.6-5.9,9.7-4.8,8.8,7c-4.7,61-23.5,151.2-10.9,42.6C993.7,1133.8,994.6,1094.4,994.6,1094.3z
				"/>
			<path class="st1" d="M982.1,1104.3c3.5-12.8-1-17.9-6.1-17.9c-11.6,0.1-14.9,35.3-16.6,55.1
				C953.2,1211.6,947.5,1229.8,982.1,1104.3z"/>
			<path class="st1" d="M952.5,1098.3c11.4-25.4-3.1-27.2-11.3-3.8c-28.1,80.6-17,58.3-21.7,66.7
				C931.3,1140.4,942.8,1119.8,952.5,1098.3z"/>
			<path class="st1" d="M929.8,1091.4c16.3-25.1,4.4-33.4-3.2-19.9c-21.6,38.4-41.9,76-58.6,116.8
				C884,1167.4,868.9,1185,929.8,1091.4z"/>
			<path class="st1" d="M913.6,1049.8c10.6-11,20.3-1.6,6,9.6C863.4,1103.5,819.9,1147,913.6,1049.8z"/>
			<path class="st1" d="M920.3,1015.6c2.8,5.5,0.6,14.9-18.5,18.3c-42.4,7.5-85.1,13.4-127.9,17.7c43.8-14.7,87.1-27,132-38.1
				C912,1011.9,917.4,1009.9,920.3,1015.6z"/>
			<path class="st1" d="M1046.7,1029.7c26.8-28.7,9.2-74.6-36.5-79.1c-26.9-2.6-54.6,12.7-63.1,43.6c-12.9,46.2,8.8,41.9,4.8,36.8
				c-4.5-5.7-4.6-63.5,42-72.8c30.4-6.1,64.6,16.2,57.5,48.4c-6.8,31.2-47.7,41.5-64.8,20.1c-11.3-14.1-7.8-40.9,20.5-42.4
				c18.5-1,27.6,10.9,21.7,22.6c-6.9,13.5-25.7,14.3-29.2,2.8c-3.2-10.4,9.7-13.3,13.6-6.6c1.5,2.5,4.8,0.5,4.3-2
				c-1.5-8.6-12.1-10.4-18.7-6.7c-13.1,7.2-6.1,33.6,16.6,30c18.6-3,28.5-24.2,17.8-37.3c-10.9-13.3-36.7-12.7-50-0.6
				c-10.9,9.9-12.7,29.8-3.1,43.1C993.7,1048.6,1026.5,1051.4,1046.7,1029.7z"/>
		</g>
	</g>
	<g>
		<g>
			<path class="st1" d="M571.7,1589.7c47.1-50.4,49.9-142.5-17.8-180.1c-70.8-39.4-179.6,14.6-182.2,97.5
				C369,1595,497.4,1669.3,571.7,1589.7z"/>
			<path class="st2" d="M512.8,1366.7c-10,1.9-23.7-5.9-20.2-37.5c7.9-70.1,18.5-139.9,31.6-209.3c2.7,75.7,2,149.5-1.4,225.1
				C522.4,1355.4,523,1364.8,512.8,1366.7z"/>
			<path class="st2" d="M543.8,1361.5c-20,6.4,32-99.7,43.5-118.2C581.8,1291.9,552.5,1358.7,543.8,1361.5z"/>
			<path class="st2" d="M578.8,1376.3c-6.3,7.7-17.7,0.6-8.3-16.3c48.4-87.9,137.6-209.7,45.1-56.2
				C607,1318,578.9,1376.1,578.8,1376.3z"/>
			<path class="st2" d="M604.3,1369.8c-13.9,16.6-10.6,27.5-3,30.9c17.3,7.8,46.2-42.6,62.2-71
				C720.3,1229.3,741,1206.1,604.3,1369.8z"/>
			<path class="st2" d="M649.9,1398.9c-34.2,30.1-13.8,42.7,14.3,13.3c96.6-101.2,64.9-75.5,77.7-84.8
				C710.1,1350.4,678.8,1373.4,649.9,1398.9z"/>
			<path class="st2" d="M675.1,1429.6c-43,23.6-32.3,44.8-10.9,31.2c61-38.7,119.5-77.2,175.2-123.2
				C800.1,1355.5,835.6,1341.7,675.1,1429.6z"/>
			<path class="st2" d="M669.5,1504.2c-23.3,9.2-31.4-11.4-2.5-18.4C780.8,1458.3,875.3,1423,669.5,1504.2z"/>
			<path class="st2" d="M636.3,1544.1c-0.4-10.2,9.2-22.7,40-14.7c68.3,17.6,136,37.8,202.8,60.4c-75.3-7.9-148.3-18.9-222.8-32.8
				C646.2,1555.2,636.8,1554.5,636.3,1544.1z"/>
			<path class="st2" d="M631.4,1579.8c-3.6-20.7,94.2,45.6,110.9,59.6C695.1,1627.1,633,1588.9,631.4,1579.8z"/>
			<path class="st2" d="M612,1612.4c-6.8-7.4,1.9-17.6,17.3-6c80.3,60.2,188.4,165.5,49.4,52.5
				C665.7,1648.4,612.1,1612.5,612,1612.4z"/>
			<path class="st2" d="M614.8,1638.6c-14.5-16.1-25.7-14.3-30.2-7.3c-10.1,16,35.7,51.7,61.6,71.5
				C737.8,1773,757.9,1796.8,614.8,1638.6z"/>
			<path class="st2" d="M580.4,1674.3c-25.1-38.1-40.4-19.6-15.2,12.3c86.7,109.8,65.7,74.8,73.1,88.8
				C620,1740.7,601.6,1706.5,580.4,1674.3z"/>
			<path class="st2" d="M550.9,1699.6c-20.3-44.6-42.3-35.5-30.3-13.1c34.1,63.6,68.2,124.8,110,183.8
				C615.7,1829.7,626.8,1866.1,550.9,1699.6z"/>
			<path class="st2" d="M479.1,1685.3c-5.9-24.3,15.7-29.5,18.6,0.1C509.2,1801.9,531,1900.4,479.1,1685.3z"/>
			<path class="st2" d="M437.6,1646c10.2,1,21.2,12.2,9,41.6c-27,65.2-56.4,129.4-88.1,192.4c18.3-73.5,39.3-144.2,63.5-216
				C425.3,1654.2,427.3,1645,437.6,1646z"/>
			<path class="st2" d="M402.9,1636.1c21-0.6-58.3,87-74.4,101.6C347.2,1692.6,393.8,1636.4,402.9,1636.1z"/>
			<path class="st2" d="M373.4,1612.3c8.2-5.7,17.1,4.3,3.5,18c-70.8,71.1-190.2,163.5-58.9,41.6
				C330.2,1660.6,373.3,1612.4,373.4,1612.3z"/>
			<path class="st2" d="M347.1,1611.5c18-12.2,17.8-23.5,11.4-28.8c-14.5-12.2-56.1,28.2-79.4,51
				C196.8,1714.5,170.5,1731.1,347.1,1611.5z"/>
			<path class="st2" d="M316.5,1572.5c41.2-19.5,25.1-37.2-10-16.7c-120.8,70.6-83.2,54.7-98.1,60.1
				C245.3,1602.4,281.7,1589,316.5,1572.5z"/>
			<path class="st2" d="M295.6,1539.8c47-13.9,41-36.9,17.2-28.2c-67.8,24.9-133.1,50.1-197.3,83.3
				C157.7,1585.7,120.1,1591.7,295.6,1539.8z"/>
			<path class="st2" d="M319.7,1470.7c24.9-2.4,27,19.6-2.7,18.4C200,1484.3,99.5,1492.1,319.7,1470.7z"/>
			<path class="st2" d="M369,1432.1c-1.3,10.1-12.8,20.8-41.9,7.9c-64.4-28.7-127.8-59.9-190-93.3c73,20.3,143.1,43.2,214.2,69.3
				C361.1,1419.5,370.2,1421.8,369,1432.1z"/>
			<path class="st2" d="M379,1402.2c-2.3,20.9-78-69.9-90.2-87.9C330.9,1339.1,380,1393,379,1402.2z"/>
			<path class="st2" d="M406.7,1376.2c4.5,8.9-6.7,16.4-18.3,1c-60.5-80-135.4-211.1-33-64.1
				C364.9,1326.7,406.6,1376.1,406.7,1376.2z"/>
			<path class="st2" d="M411.2,1350.3c9.5,19.5,20.8,20.9,27,15.3c14.1-12.6-20.1-59.5-39.5-85.8
				C330.1,1187.1,317.4,1158.7,411.2,1350.3z"/>
			<path class="st2" d="M454.1,1325.4c13.6,43.5,33.4,30,18-7.6c-53.1-129.4-42.5-90-45.8-105.5
				C434.4,1250.7,442.6,1288.6,454.1,1325.4z"/>
			<path class="st2" d="M568.5,1483.7c-16.1-62.3-95.1-78.4-141.5-19c-27.3,34.9-30.4,86.7,4.7,125.7c52.6,58.5,65.7,24.6,55.1,25.7
				c-11.8,1.2-91.9-49.6-63.7-122.3c18.4-47.4,79.2-75.1,117.6-36.9c37.2,37,15.3,102.5-29.2,107.3c-29.4,3.2-63.4-25.2-40.6-65.7
				c14.9-26.5,39.3-28.6,50.3-10c12.7,21.4-2.9,48.1-21.9,42.9c-17.2-4.7-9.8-25.1,2.9-24.5c4.8,0.2,4.8-6.2,1-7.7
				c-13.1-5.5-25,7.6-25.8,20c-1.5,24.4,41.1,38,56.1,3.4c12.3-28.4-8.4-60.7-35.9-57.4c-27.9,3.3-49.9,39.6-44.9,68.6
				c4.1,23.8,30.1,43.7,56.8,42.2C547.9,1573.5,580.6,1530.6,568.5,1483.7z"/>
		</g>
		<g>
			<path class="st2" d="M0,1067.1V927.9c38-0.7,77.8,31.3,80,70.1C82.7,1042.5,39.7,1070.6,0,1067.1z"/>
			<path class="st1" d="M88.7,962.7c-4.2-4.6-4.7-14.2,12.7-22.7c38.7-18.9,78.1-36.3,118.1-52.3c-38.1,26.2-76.3,50-116.3,73
				C97.6,964,93,967.4,88.7,962.7z"/>
			<path class="st1" d="M101.5,977c-9.9-8.2,61.8-16.1,75.1-16.3C149.8,973.8,105.8,980.6,101.5,977z"/>
			<path class="st1" d="M105.4,999.8c-6.1-0.7-6.1-8.9,5.7-9.6c61.1-3.9,153,2.2,43.7,4.8C144.6,995.3,105.5,999.8,105.4,999.8z"/>
			<path class="st1" d="M117,1010.9c-13.1-1.7-17.6,3.5-16.9,8.6c1.7,11.4,37,9.8,56.9,8.8C227.3,1024.5,246.1,1027.6,117,1010.9z"
				/>
			<path class="st1" d="M117,1043.9c-26.7-7.7-26.5,6.9-2.2,11.7c83.7,16.6,60.1,8.7,69.1,12.2C161.7,1059,139.6,1050.4,117,1043.9z
				"/>
			<path class="st1" d="M109.4,1066.9c-26.2-14.4-33.6-1.9-19.6,4.6c39.9,18.7,78.9,36.2,120.8,49.8
				C188.6,1107,207.3,1120.7,109.4,1066.9z"/>
			<path class="st1" d="M69.2,1088.5c-12.4-9-4.4-19.9,8.7-7.3C129.3,1130.7,178.4,1167.7,69.2,1088.5z"/>
			<path class="st1" d="M37.8,1084.4c5.1-3.6,14.7-2.7,20.7,15.8c13.3,40.9,25.1,82.4,35.3,124.2c-20.6-41.4-38.9-82.5-56.1-125.4
				C35.3,1093.1,32.6,1088.1,37.8,1084.4z"/>
			<path class="st1" d="M17.8,1093.6c9.5-8.6,7.4,63.4,5.7,76.6C14.3,1141.9,13.6,1097.4,17.8,1093.6z"/>
			<path class="st1" d="M3.4,1101.2c-0.8,10.4-2,21.6-3.4,32.6v-42.7C2.1,1092.2,3.8,1095.4,3.4,1101.2z"/>
			<path class="st1" d="M7.9,910.1c-2.3,1.1-5.1,1.3-7.9,0v-59.4c3.7,14.9,7.1,29.9,10.4,45.1C11.8,901.9,13.6,907.4,7.9,910.1z"/>
			<path class="st1" d="M26.6,905.5c-11.5,5.7,10.4-63,15.7-75.2C43.3,860.1,31.6,903,26.6,905.5z"/>
			<path class="st1" d="M49,911.3c-3.1,5.2-10.6,1.9-6.5-9.1c21.4-57.4,64.3-138.8,22.2-37.9C60.8,873.6,49.1,911.2,49,911.3z"/>
			<path class="st1" d="M63.8,905.1c-6.9,11.3-3.9,17.5,1,18.9c11.1,3.1,24.1-29.8,31.2-48.4C121.3,809.9,131.7,794,63.8,905.1z"/>
			<path class="st1" d="M90.7,919c-17.9,21.2-4.5,27,9.8,6.7c49.2-69.7,32.4-51.4,39.3-58.1C122.7,884.4,105.9,901.1,90.7,919z"/>
			<path class="st1" d="M0,1002.9v-9.1c6.6-2.8,16-0.7,17.4,7.3c0.4,2.5-2.9,4.5-4.3,2C10.3,998.3,2.7,998.5,0,1002.9z"/>
			<path class="st1" d="M0,1021.5V1011c4.5,10.2,22.2,9,28.8-4c5.9-11.8-3.1-23.6-21.7-22.6c-2.6,0.1-4.9,0.5-7.1,1v-7.1
				c12.3-2.6,25.9,0.1,33.1,8.9c10.7,13.1,0.9,34.3-17.8,37.3C8.9,1025.4,3.8,1024.1,0,1021.5z"/>
			<path class="st1" d="M46.7,1029.7c-13.1,14.1-31.6,17.8-46.7,13.5v-7.1c19.4,6.7,46-4.8,51.4-29.5C58,976.5,28.7,955.1,0,957.4
				v-6.8c3.4-0.2,6.8-0.2,10.1,0.1C55.9,955.1,73.5,1001,46.7,1029.7z"/>
		</g>
	</g>
</g>
</svg>
